C:\Users\Nicos\Documents\OpenSimProjects\SprintingProject\Study1\PredictiveResults\IC_pred_Sprinting_optimum_27-October-2023__18-13-56_p02_maxVel_01___HTD_Plus_2_GRF.mot
version=1
nRows=9
nColumns=127
inDegrees=yes
endheader
time	ground_force_vx	ground_force_vy	ground_force_vz	ground_force_px	ground_force_py	ground_force_pz	ground_torque_x	ground_torque_y	ground_torque_z	1_ground_force_vx	1_ground_force_vy	1_ground_force_vz	1_ground_force_px	1_ground_force_py	1_ground_force_pz	1_ground_torque_x	1_ground_torque_y	1_ground_torque_z	2_ground_force_vx	2_ground_force_vy	2_ground_force_vz	2_ground_force_px	2_ground_force_py	2_ground_force_pz	2_ground_torque_x	2_ground_torque_y	2_ground_torque_z	3_ground_force_vx	3_ground_force_vy	3_ground_force_vz	3_ground_force_px	3_ground_force_py	3_ground_force_pz	3_ground_torque_x	3_ground_torque_y	3_ground_torque_z	4_ground_force_vx	4_ground_force_vy	4_ground_force_vz	4_ground_force_px	4_ground_force_py	4_ground_force_pz	4_ground_torque_x	4_ground_torque_y	4_ground_torque_z	5_ground_force_vx	5_ground_force_vy	5_ground_force_vz	5_ground_force_px	5_ground_force_py	5_ground_force_pz	5_ground_torque_x	5_ground_torque_y	5_ground_torque_z	6_ground_force_vx	6_ground_force_vy	6_ground_force_vz	6_ground_force_px	6_ground_force_py	6_ground_force_pz	6_ground_torque_x	6_ground_torque_y	6_ground_torque_z	7_ground_force_vx	7_ground_force_vy	7_ground_force_vz	7_ground_force_px	7_ground_force_py	7_ground_force_pz	7_ground_torque_x	7_ground_torque_y	7_ground_torque_z	8_ground_force_vx	8_ground_force_vy	8_ground_force_vz	8_ground_force_px	8_ground_force_py	8_ground_force_pz	8_ground_torque_x	8_ground_torque_y	8_ground_torque_z	9_ground_force_vx	9_ground_force_vy	9_ground_force_vz	9_ground_force_px	9_ground_force_py	9_ground_force_pz	9_ground_torque_x	9_ground_torque_y	9_ground_torque_z	10_ground_force_vx	10_ground_force_vy	10_ground_force_vz	10_ground_force_px	10_ground_force_py	10_ground_force_pz	10_ground_torque_x	10_ground_torque_y	10_ground_torque_z	11_ground_force_vx	11_ground_force_vy	11_ground_force_vz	11_ground_force_px	11_ground_force_py	11_ground_force_pz	11_ground_torque_x	11_ground_torque_y	11_ground_torque_z	12_ground_force_vx	12_ground_force_vy	12_ground_force_vz	12_ground_force_px	12_ground_force_py	12_ground_force_pz	12_ground_torque_x	12_ground_torque_y	12_ground_torque_z	13_ground_force_vx	13_ground_force_vy	13_ground_force_vz	13_ground_force_px	13_ground_force_py	13_ground_force_pz	13_ground_torque_x	13_ground_torque_y	13_ground_torque_z
0.056000	-89.355169	36.563302	17.234774	0.376627	-0.001791	0.410047	0.000000	0.000000	0.000000	-0.237512	0.099668	0.048955	0.336216	0.006332	0.433928	0.000000	0.000000	0.000000	-0.002060	0.000918	0.000570	0.309125	0.010920	0.429444	0.000000	0.000000	0.000000	-0.045229	0.019724	0.012477	0.309869	0.007955	0.407518	0.000000	0.000000	0.000000	-0.000000	0.000000	0.000000	0.229930	0.025525	0.465498	0.000000	0.000000	0.000000	-0.000060	0.000027	0.000018	0.279979	0.014195	0.426683	0.000000	0.000000	0.000000	-0.000000	0.000000	0.000000	0.163396	0.027296	0.415640	0.000000	0.000000	0.000000	-0.000000	0.000000	0.000000	-0.568354	0.259774	0.154242	0.000000	0.000000	0.000000	-0.000000	0.000000	0.000000	-0.544282	0.279944	0.138104	0.000000	0.000000	0.000000	-0.000000	0.000000	0.000000	-0.529983	0.290994	0.146058	0.000000	0.000000	0.000000	-0.000000	0.000000	0.000000	-0.536598	0.289195	0.167500	0.000000	0.000000	0.000000	-0.000000	0.000000	0.000000	-0.487629	0.330273	0.124615	0.000000	0.000000	0.000000	-0.000000	0.000000	0.000000	-0.519012	0.304388	0.153938	0.000000	0.000000	0.000000	-0.000000	0.000000	0.000000	-0.475130	0.357962	0.185461	0.000000	0.000000	0.000000
0.056648	-113.221903	46.509069	20.021681	0.381084	-0.002239	0.409300	0.000000	0.000000	0.000000	-0.471117	0.198627	0.090535	0.340463	0.005608	0.433192	0.000000	0.000000	0.000000	-0.004988	0.002232	0.001311	0.313166	0.010076	0.428603	0.000000	0.000000	0.000000	-0.094138	0.041188	0.024630	0.314034	0.007220	0.406623	0.000000	0.000000	0.000000	-0.000000	0.000000	0.000000	0.233662	0.024287	0.464606	0.000000	0.000000	0.000000	-0.000162	0.000073	0.000046	0.283996	0.013285	0.425783	0.000000	0.000000	0.000000	-0.000000	0.000000	0.000000	0.167317	0.026118	0.414505	0.000000	0.000000	0.000000	-0.000000	0.000000	0.000000	-0.557062	0.259687	0.153361	0.000000	0.000000	0.000000	-0.000000	0.000000	0.000000	-0.533113	0.279908	0.137296	0.000000	0.000000	0.000000	-0.000000	0.000000	0.000000	-0.518958	0.291031	0.145369	0.000000	0.000000	0.000000	-0.000000	0.000000	0.000000	-0.525626	0.289219	0.166791	0.000000	0.000000	0.000000	-0.000000	0.000000	0.000000	-0.476771	0.330375	0.124073	0.000000	0.000000	0.000000	-0.000000	0.000000	0.000000	-0.508089	0.304440	0.153289	0.000000	0.000000	0.000000	-0.000000	0.000000	0.000000	-0.464611	0.358073	0.184971	0.000000	0.000000	0.000000
0.058694	-186.872241	79.153743	22.900709	0.394879	-0.003490	0.407443	0.000000	0.000000	0.000000	-2.995033	1.305424	0.438065	0.353581	0.003485	0.431257	0.000000	0.000000	0.000000	-0.064962	0.029787	0.013833	0.325693	0.007554	0.426293	0.000000	0.000000	0.000000	-0.764415	0.342141	0.161048	0.326969	0.005018	0.404177	0.000000	0.000000	0.000000	-0.000000	0.000000	0.000000	0.245166	0.020478	0.461961	0.000000	0.000000	0.000000	-0.003064	0.001408	0.000733	0.296442	0.010517	0.423246	0.000000	0.000000	0.000000	-0.000000	0.000000	0.000000	0.179440	0.022369	0.411060	0.000000	0.000000	0.000000	-0.000000	0.000000	0.000000	-0.521371	0.259391	0.150616	0.000000	0.000000	0.000000	-0.000000	0.000000	0.000000	-0.497778	0.279763	0.134785	0.000000	0.000000	0.000000	-0.000000	0.000000	0.000000	-0.484046	0.291069	0.143167	0.000000	0.000000	0.000000	-0.000000	0.000000	0.000000	-0.490879	0.289216	0.164522	0.000000	0.000000	0.000000	-0.000000	0.000000	0.000000	-0.442412	0.330620	0.122330	0.000000	0.000000	0.000000	-0.000000	0.000000	0.000000	-0.473507	0.304525	0.151210	0.000000	0.000000	0.000000	-0.000000	0.000000	0.000000	-0.431348	0.358347	0.183383	0.000000	0.000000	0.000000
0.060177	-234.845117	102.697433	18.744967	0.404510	-0.004277	0.406591	0.000000	0.000000	0.000000	-8.213144	3.699697	0.891243	0.362725	0.002075	0.430252	0.000000	0.000000	0.000000	-0.340481	0.160799	0.059764	0.334452	0.005836	0.424973	0.000000	0.000000	0.000000	-2.804089	1.291215	0.484375	0.336031	0.003503	0.402787	0.000000	0.000000	0.000000	-0.000001	0.000001	0.000000	0.253171	0.017818	0.460243	0.000000	0.000000	0.000000	-0.022051	0.010432	0.004511	0.305144	0.008597	0.421725	0.000000	0.000000	0.000000	-0.000000	0.000000	0.000000	0.187912	0.019642	0.408735	0.000000	0.000000	0.000000	-0.000000	0.000000	0.000000	-0.495501	0.259157	0.148657	0.000000	0.000000	0.000000	-0.000000	0.000000	0.000000	-0.472135	0.279628	0.133002	0.000000	0.000000	0.000000	-0.000000	0.000000	0.000000	-0.458673	0.291023	0.141545	0.000000	0.000000	0.000000	-0.000000	0.000000	0.000000	-0.465625	0.289139	0.162851	0.000000	0.000000	0.000000	-0.000000	0.000000	0.000000	-0.417463	0.330728	0.121037	0.000000	0.000000	0.000000	-0.000000	0.000000	0.000000	-0.448382	0.304513	0.149675	0.000000	0.000000	0.000000	-0.000000	0.000000	0.000000	-0.407218	0.358476	0.182195	0.000000	0.000000	0.000000
0.060824	-254.328190	113.618758	16.668457	0.408581	-0.004608	0.406342	0.000000	0.000000	0.000000	-11.460915	5.277928	1.117975	0.366588	0.001481	0.429913	0.000000	0.000000	0.000000	-0.664930	0.318837	0.106415	0.338169	0.005108	0.424491	0.000000	0.000000	0.000000	-4.611117	2.154960	0.724322	0.339882	0.002856	0.402282	0.000000	0.000000	0.000000	-0.000004	0.000002	0.000001	0.256562	0.016683	0.459551	0.000000	0.000000	0.000000	-0.050154	0.024087	0.009539	0.308838	0.007777	0.421147	0.000000	0.000000	0.000000	-0.000001	0.000000	0.000000	0.191512	0.018451	0.407772	0.000000	0.000000	0.000000	-0.000000	0.000000	0.000000	-0.484205	0.259050	0.147808	0.000000	0.000000	0.000000	-0.000000	0.000000	0.000000	-0.460929	0.279561	0.132232	0.000000	0.000000	0.000000	-0.000000	0.000000	0.000000	-0.447574	0.290983	0.140830	0.000000	0.000000	0.000000	-0.000000	0.000000	0.000000	-0.454579	0.289086	0.162114	0.000000	0.000000	0.000000	-0.000000	0.000000	0.000000	-0.406557	0.330757	0.120465	0.000000	0.000000	0.000000	-0.000000	0.000000	0.000000	-0.437394	0.304490	0.148997	0.000000	0.000000	0.000000	-0.000000	0.000000	0.000000	-0.396674	0.358514	0.181666	0.000000	0.000000	0.000000
0.062871	-311.956311	148.377436	4.447134	0.420867	-0.005616	0.405981	0.000000	0.000000	0.000000	-28.300978	13.879440	1.449094	0.378250	-0.000327	0.429200	0.000000	0.000000	0.000000	-4.233542	2.155392	0.490175	0.349425	0.002875	0.423311	0.000000	0.000000	0.000000	-14.888212	7.380131	1.674242	0.351552	0.000849	0.401050	0.000000	0.000000	0.000000	-0.000156	0.000084	0.000034	0.266821	0.013190	0.457602	0.000000	0.000000	0.000000	-0.564512	0.287653	0.084138	0.320028	0.005239	0.419640	0.000000	0.000000	0.000000	-0.000033	0.000017	0.000009	0.202441	0.014696	0.404960	0.000000	0.000000	0.000000	-0.000000	0.000000	0.000000	-0.448517	0.258685	0.145147	0.000000	0.000000	0.000000	-0.000000	0.000000	0.000000	-0.425497	0.279317	0.129828	0.000000	0.000000	0.000000	-0.000000	0.000000	0.000000	-0.412438	0.290783	0.138541	0.000000	0.000000	0.000000	-0.000000	0.000000	0.000000	-0.419610	0.288842	0.159754	0.000000	0.000000	0.000000	-0.000000	0.000000	0.000000	-0.372054	0.330775	0.118625	0.000000	0.000000	0.000000	-0.000000	0.000000	0.000000	-0.402619	0.304339	0.146824	0.000000	0.000000	0.000000	-0.000000	0.000000	0.000000	-0.363344	0.358560	0.179954	0.000000	0.000000	0.000000
0.064354	-346.404862	173.350473	-8.455662	0.429185	-0.006299	0.406082	0.000000	0.000000	0.000000	-63.252195	32.610869	0.848749	0.386145	-0.001574	0.429007	0.000000	0.000000	0.000000	-11.117073	5.998102	0.989178	0.357023	0.001294	0.422735	0.000000	0.000000	0.000000	-32.434296	17.025366	2.770174	0.359443	-0.000592	0.400455	0.000000	0.000000	0.000000	-0.002067	0.001182	0.000410	0.273745	0.010732	0.456398	0.000000	0.000000	0.000000	-2.629184	1.418826	0.327537	0.327590	0.003433	0.418815	0.000000	0.000000	0.000000	-0.000586	0.000317	0.000156	0.209856	0.011988	0.403135	0.000000	0.000000	0.000000	-0.000000	0.000000	0.000000	-0.422597	0.258361	0.143196	0.000000	0.000000	0.000000	-0.000000	0.000000	0.000000	-0.399763	0.279079	0.128066	0.000000	0.000000	0.000000	-0.000000	0.000000	0.000000	-0.386915	0.290569	0.136851	0.000000	0.000000	0.000000	-0.000000	0.000000	0.000000	-0.394210	0.288595	0.158010	0.000000	0.000000	0.000000	-0.000000	0.000000	0.000000	-0.347009	0.330721	0.117260	0.000000	0.000000	0.000000	-0.000000	0.000000	0.000000	-0.377367	0.304160	0.145216	0.000000	0.000000	0.000000	-0.000000	0.000000	0.000000	-0.339173	0.358524	0.178673	0.000000	0.000000	0.000000
0.065001	-359.366811	185.216450	-14.722670	0.432634	-0.006595	0.406210	0.000000	0.000000	0.000000	-84.150564	44.669563	-0.193650	0.389420	-0.002110	0.428999	0.000000	0.000000	0.000000	-15.155547	8.443593	1.183332	0.360167	0.000607	0.422549	0.000000	0.000000	0.000000	-49.212736	26.662790	3.660440	0.362710	-0.001225	0.400265	0.000000	0.000000	0.000000	-0.006093	0.003597	0.001167	0.276608	0.009676	0.455924	0.000000	0.000000	0.000000	-4.699113	2.617531	0.540351	0.330721	0.002648	0.418518	0.000000	0.000000	0.000000	-0.001999	0.001115	0.000524	0.212936	0.010812	0.402391	0.000000	0.000000	0.000000	-0.000000	0.000000	0.000000	-0.411251	0.258196	0.142330	0.000000	0.000000	0.000000	-0.000000	0.000000	0.000000	-0.388504	0.278953	0.127282	0.000000	0.000000	0.000000	-0.000000	0.000000	0.000000	-0.375756	0.290458	0.136105	0.000000	0.000000	0.000000	-0.000000	0.000000	0.000000	-0.383105	0.288470	0.157239	0.000000	0.000000	0.000000	-0.000000	0.000000	0.000000	-0.336062	0.330680	0.116656	0.000000	0.000000	0.000000	-0.000000	0.000000	0.000000	-0.366327	0.304065	0.144505	0.000000	0.000000	0.000000	-0.000000	0.000000	0.000000	-0.328613	0.358491	0.178103	0.000000	0.000000	0.000000
0.067048	-383.547935	219.082095	-36.938912	0.442743	-0.007470	0.406898	0.000000	0.000000	0.000000	-154.141453	90.621474	-8.600289	0.399016	-0.003749	0.429256	0.000000	0.000000	0.000000	-54.191151	34.073931	2.765897	0.369257	-0.001576	0.422149	0.000000	0.000000	0.000000	-128.474666	78.355717	5.995441	0.372178	-0.003254	0.399862	0.000000	0.000000	0.000000	-0.151627	0.101309	0.027813	0.284881	0.006391	0.454579	0.000000	0.000000	0.000000	-17.345699	10.891804	1.626735	0.339784	0.000166	0.417762	0.000000	0.000000	0.000000	-0.080345	0.050333	0.021111	0.221895	0.007132	0.400214	0.000000	0.000000	0.000000	-0.000000	0.000000	0.000000	-0.375228	0.257550	0.139499	0.000000	0.000000	0.000000	-0.000000	0.000000	0.000000	-0.352811	0.278442	0.124705	0.000000	0.000000	0.000000	-0.000000	0.000000	0.000000	-0.340443	0.290039	0.133706	0.000000	0.000000	0.000000	-0.000000	0.000000	0.000000	-0.347968	0.288003	0.154760	0.000000	0.000000	0.000000	-0.000000	0.000000	0.000000	-0.301439	0.330483	0.114715	0.000000	0.000000	0.000000	-0.000000	0.000000	0.000000	-0.331404	0.303694	0.142218	0.000000	0.000000	0.000000	-0.000000	0.000000	0.000000	-0.295244	0.358314	0.176267	0.000000	0.000000	0.000000
